<?xml version="1.0" encoding="utf-8"?>
<!-- Generator: Adobe Illustrator 27.0.0, SVG Export Plug-In . SVG Version: 6.00 Build 0)  -->
<svg version="1.1" id="图层_1" xmlns="http://www.w3.org/2000/svg" xmlns:xlink="http://www.w3.org/1999/xlink" x="0px" y="0px"
	 viewBox="0 0 60 60" style="enable-background:new 0 0 60 60;" xml:space="preserve">
<style type="text/css">
	.st0{fill-rule:evenodd;clip-rule:evenodd;fill:url(#椭圆形备份-16_00000086662562901887708010000012970299371321920646_);}
	.st1{fill:#FFFFFF;fill-opacity:0;}
	.st2{fill:#FFFFFF;}
</style>
<linearGradient id="椭圆形备份-16_00000009557406870072042810000013290634936335464349_" gradientUnits="userSpaceOnUse" x1="-262.05" y1="444.3733" x2="-262.05" y2="443.3733" gradientTransform="matrix(60 0 0 -60 15753 26662.4004)">
	<stop  offset="0" style="stop-color:#7CE29E"/>
	<stop  offset="1" style="stop-color:#6DD16F"/>
</linearGradient>
<circle id="椭圆形备份-16" style="fill-rule:evenodd;clip-rule:evenodd;fill:url(#椭圆形备份-16_00000009557406870072042810000013290634936335464349_);" cx="30" cy="30" r="30"/>
<g id="安全" transform="translate(14.000000, 14.000000)">
	<rect id="矩形" y="0" class="st1" width="32" height="32"/>
	<path id="形状" class="st2" d="M30.5,7.8c0-0.5-0.3-0.9-0.7-1L16.4,1.4c-0.3-0.1-0.6-0.1-0.9,0L2.3,6.7c-0.4,0.2-0.7,0.6-0.7,1
		c0,0.5-0.3,11.2,2,15.6c2.4,4.6,11.7,7.9,12.1,8c0.1,0,0.3,0.1,0.4,0.1c0.1,0,0.3,0,0.4-0.1c0.4-0.1,9.8-3.5,12.1-8
		C30.8,19,30.5,8.2,30.5,7.8z M14.8,22.1L9.7,17l1.6-1.6l3.6,3.6l6.8-5.6l1.5,1.8L14.8,22.1z"/>
</g>
</svg>
